<svg xmlns="http://www.w3.org/2000/svg" data-name="Layer 1" viewBox="0 0 100 125" x="0px" y="0px"><title>h5</title><path d="M94.26,54.11l-41.44-41a4,4,0,0,0-5.63,0L31.34,28.76v-3.1a2,2,0,0,0-2-2H21.5a2,2,0,0,0-2,2V40.51L5.74,54.11a2.48,2.48,0,0,0,1.74,4.24H19.4V82.59a5.51,5.51,0,0,0,5.51,5.51H75.09a5.51,5.51,0,0,0,5.51-5.51V58.35H92.52A2.48,2.48,0,0,0,94.26,54.11Zm-42.14,26V73.58a11.55,11.55,0,0,0,9.42-11.35V54.66H57V49.09a1.73,1.73,0,1,0-3.46,0v5.57H46.42V49.09a1.73,1.73,0,1,0-3.46,0v5.57h-4.5v7.58a11.55,11.55,0,0,0,9.42,11.35V80.1a21.07,21.07,0,1,1,4.25,0Z"/><text x="0" y="115" fill="#000000" font-size="5px" font-weight="bold" font-family="'Helvetica Neue', Helvetica, Arial-Unicode, Arial, Sans-serif">Created by WheelieMonkey</text><text x="0" y="120" fill="#000000" font-size="5px" font-weight="bold" font-family="'Helvetica Neue', Helvetica, Arial-Unicode, Arial, Sans-serif">from the Noun Project</text></svg>